<svg id="Layer_1" data-name="Layer 1" xmlns="http://www.w3.org/2000/svg" viewBox="0 0 4.45 4.52"><defs><style>.cls-1{fill:#041e3c;}.cls-2{fill:#1b3765;}.cls-3{fill:#ffc30c;}</style></defs><title>logo</title><path class="cls-1" d="M2.13,4.52,1.58,4A1.76,1.76,0,0,0,2.84,2.27,1.78,1.78,0,0,0,1.55.55L2.1,0,4.37,2.28Z"/><path class="cls-2" d="M1.06,3.25a.83.83,0,0,1-.22,0A1,1,0,0,1,.1,2.49a1.8,1.8,0,0,1,0-.22A.82.82,0,0,1,.12,2,1,1,0,0,1,.8,1.31a.75.75,0,0,1,.26,0,1,1,0,1,1,0,2Z"/><path class="cls-3" d="M1.23,3.62A1.37,1.37,0,0,0,1.21.9L.8,1.31a.75.75,0,0,1,.26,0,1,1,0,1,1,0,2,.83.83,0,0,1-.22,0Z"/></svg>